<svg width="192" height="88" viewBox="0 0 192 88" fill="none" xmlns="http://www.w3.org/2000/svg">
<rect x="79" y="2" width="113" height="70" rx="2" fill="url(#paint0_linear_55_15)"/>
<path d="M27 24.6C27.5333 48.4667 28.3333 51 35.4 51C40.4667 51 43.1333 49.8 44.7333 46.8667C45.9333 44.6 45.6667 44.4667 42.7333 45.9333C36.3333 48.7333 35.2667 46.0667 35.2667 27.1333C35.2667 10.3333 35.2667 10.2 31.5333 6.6C29.5333 4.6 27.5333 3 27.1333 3C26.8667 3 26.8667 12.7333 27 24.6Z" fill="#0066FF"/>
<g filter="url(#filter0_d_55_15)">
<path d="M18.7333 9.53334L15 13.4L15.4 31.4C15.9333 47.1333 16.3333 49.9333 18.7333 53.1333C27.9333 65.5333 43.9333 65.9333 52.0667 53.9333C54.3333 50.6 55 47.1333 55.5333 36.0667C55.9333 28.4667 56.0667 22.2 55.9333 21.9333C55.8 21.6667 53.6667 23.1333 51.2667 25.1333C47.1333 28.7333 47 29.1333 47.8 36.0667C49.5333 50.3333 40.7333 58.6 29.9333 53C24.3333 50.0667 23 44.0667 23.5333 23.2667C23.8 13.6667 23.5333 5.66667 23.1333 5.66667C22.7333 5.66667 20.7333 7.4 18.7333 9.53334Z" fill="#0066FF"/>
</g>
<path d="M58.6 34.6C58.6 45.8 58.0667 49.9333 56.3333 53.2667C50.7333 63.4 38.2 68.0667 28.2 63.8C21.4 61 23.4 63.9333 30.4667 67.1333C37.9333 70.6 44.2 70.3333 52.3333 66.2C62.3333 61.2667 66.0667 54.4667 67 39.5333C67.6667 28.4667 67.5333 28.0667 63.9333 24.3333C61.8 22.0667 59.8 20.3333 59.4 20.3333C59 20.3333 58.6 26.7333 58.6 34.6Z" fill="#0066FF"/>
<path d="M112.62 27.58H100.62V35.23H110.13V36.64H100.62V46H99.12V26.2H112.62V27.58ZM124.44 44.62H136.32V46H122.94V26.2H124.44V44.62ZM147.907 26.2V46H146.407V26.2H147.907ZM173.552 46H171.812L165.782 37.09L159.662 46H157.892L164.972 35.83L158.492 26.2H160.292L165.902 34.57L171.602 26.2H173.312L166.712 35.8L173.552 46Z" fill="white"/>
<defs>
<filter id="filter0_d_55_15" x="0" y="0.666672" width="70.9833" height="87.0222" filterUnits="userSpaceOnUse" color-interpolation-filters="sRGB">
<feFlood flood-opacity="0" result="BackgroundImageFix"/>
<feColorMatrix in="SourceAlpha" type="matrix" values="0 0 0 0 0 0 0 0 0 0 0 0 0 0 0 0 0 0 127 0" result="hardAlpha"/>
<feOffset dy="10"/>
<feGaussianBlur stdDeviation="7.5"/>
<feComposite in2="hardAlpha" operator="out"/>
<feColorMatrix type="matrix" values="0 0 0 0 0 0 0 0 0 0 0 0 0 0 0 0 0 0 0.25 0"/>
<feBlend mode="normal" in2="BackgroundImageFix" result="effect1_dropShadow_55_15"/>
<feBlend mode="normal" in="SourceGraphic" in2="effect1_dropShadow_55_15" result="shape"/>
</filter>
<linearGradient id="paint0_linear_55_15" x1="135.5" y1="2" x2="135.5" y2="72" gradientUnits="userSpaceOnUse">
<stop stop-color="#0066FF"/>
<stop offset="1" stop-color="#003D99"/>
</linearGradient>
</defs>
</svg>
